<?xml version="1.0" encoding="UTF-8"?>
<svg width="1445px" height="38px" viewBox="0 0 1445 38" version="1.1" xmlns="http://www.w3.org/2000/svg" xmlns:xlink="http://www.w3.org/1999/xlink">
    <!-- Generator: Sketch 48.2 (47327) - http://www.bohemiancoding.com/sketch -->
    <title>both-squiggles</title>
    <desc>Created with Sketch.</desc>
    <defs>
        <path d="M310.36524,0 C296.023718,0 288.669092,7.82 282.049928,14.62 C275.798495,21.42 270.282525,27.2 259.250585,27.2 C248.218646,27.2 242.702676,21.42 236.451243,14.62 C230.199811,7.82 222.845184,0 208.135931,0 C193.794409,0 186.439783,7.82 179.820619,14.62 C173.569186,21.42 168.053216,27.2 157.021277,27.2 C145.989337,27.2 140.473367,21.42 134.221934,14.62 C127.60277,7.82 120.248144,0 105.906622,0 C91.5651004,0 84.2104739,7.82 77.59131,14.62 C71.3398774,21.42 65.8239075,27.2 54.7919677,27.2 C43.7600279,27.2 38.244058,21.42 31.9926254,14.62 C25.3734616,7.82 18.018835,0 3.67731327,0 C1.47092531,0 0,1.36 0,3.4 C0,5.44 1.47092531,6.8 3.67731327,6.8 C14.7092531,6.8 20.225223,12.58 26.4766555,19.38 C33.0958194,26.18 40.450446,34 54.7919677,34 C69.1334895,34 76.488116,26.18 83.1072799,19.38 C89.3587124,12.58 94.8746823,6.8 105.906622,6.8 C116.938562,6.8 122.454532,12.58 128.705964,19.38 C135.325128,26.18 142.679755,34 157.021277,34 C171.362798,34 178.717425,26.18 185.336589,19.38 C191.588021,12.58 197.103991,6.8 208.135931,6.8 C219.167871,6.8 224.683841,12.58 230.935273,19.38 C237.554437,26.18 244.909064,34 259.250585,34 C273.592107,34 280.946734,26.18 287.565898,19.38 C293.81733,12.58 299.3333,6.8 310.36524,6.8 C312.571628,6.8 314.042553,5.44 314.042553,3.4 C314.042553,1.36 312.571628,0 310.36524,0 Z" id="path-1"></path>
        <filter x="-0.8%" y="-7.4%" width="103.2%" height="126.5%" filterUnits="objectBoundingBox" id="filter-2">
            <feOffset dx="5" dy="4" in="SourceAlpha" result="shadowOffsetOuter1"></feOffset>
            <feColorMatrix values="0 0 0 0 0   0 0 0 0 0   0 0 0 0 0  0 0 0 0.100118886 0" type="matrix" in="shadowOffsetOuter1"></feColorMatrix>
        </filter>
        <path d="M616.748219,0 C602.406697,0 595.05207,7.82 588.432906,14.62 C582.181474,21.42 576.665504,27.2 565.633564,27.2 C554.601624,27.2 549.085654,21.42 542.834222,14.62 C536.582789,7.82 529.228163,0 514.51891,0 C500.177388,0 492.822761,7.82 486.203598,14.62 C479.952165,21.42 474.436195,27.2 463.404255,27.2 C452.372316,27.2 446.856346,21.42 440.604913,14.62 C433.985749,7.82 426.631123,0 412.289601,0 C397.948079,0 390.593453,7.82 383.974289,14.62 C377.722856,21.42 372.206886,27.2 361.174946,27.2 C350.143007,27.2 344.627037,21.42 338.375604,14.62 C331.75644,7.82 324.401814,0 310.060292,0 C307.853904,0 306.382979,1.36 306.382979,3.4 C306.382979,5.44 307.853904,6.8 310.060292,6.8 C321.092232,6.8 326.608202,12.58 332.859634,19.38 C339.478798,26.18 346.833425,34 361.174946,34 C375.516468,34 382.871095,26.18 389.490259,19.38 C395.741691,12.58 401.257661,6.8 412.289601,6.8 C423.321541,6.8 428.837511,12.58 435.088943,19.38 C441.708107,26.18 449.062734,34 463.404255,34 C477.745777,34 485.100404,26.18 491.719567,19.38 C497.971,12.58 503.48697,6.8 514.51891,6.8 C525.55085,6.8 531.066819,12.58 537.318252,19.38 C543.937416,26.18 551.292042,34 565.633564,34 C579.975086,34 587.329712,26.18 593.948876,19.38 C600.200309,12.58 605.716279,6.8 616.748219,6.8 C618.954607,6.8 620.425532,5.44 620.425532,3.4 C620.425532,1.36 618.954607,0 616.748219,0 Z" id="path-3"></path>
        <filter x="-0.8%" y="-7.4%" width="103.2%" height="126.5%" filterUnits="objectBoundingBox" id="filter-4">
            <feOffset dx="5" dy="4" in="SourceAlpha" result="shadowOffsetOuter1"></feOffset>
            <feColorMatrix values="0 0 0 0 0   0 0 0 0 0   0 0 0 0 0  0 0 0 0.100118886 0" type="matrix" in="shadowOffsetOuter1"></feColorMatrix>
        </filter>
        <path d="M923.131197,0 C908.789676,0 901.435049,7.82 894.815885,14.62 C888.564453,21.42 883.048483,27.2 872.016543,27.2 C860.984603,27.2 855.468633,21.42 849.217201,14.62 C842.965768,7.82 835.611142,0 820.901888,0 C806.560367,0 799.20574,7.82 792.586576,14.62 C786.335144,21.42 780.819174,27.2 769.787234,27.2 C758.755294,27.2 753.239324,21.42 746.987892,14.62 C740.368728,7.82 733.014101,0 718.67258,0 C704.331058,0 696.976431,7.82 690.357267,14.62 C684.105835,21.42 678.589865,27.2 667.557925,27.2 C656.525985,27.2 651.010015,21.42 644.758583,14.62 C638.139419,7.82 630.784792,0 616.443271,0 C614.236883,0 612.765957,1.36 612.765957,3.4 C612.765957,5.44 614.236883,6.8 616.443271,6.8 C627.475211,6.8 632.99118,12.58 639.242613,19.38 C645.861777,26.18 653.216403,34 667.557925,34 C681.899447,34 689.254073,26.18 695.873237,19.38 C702.12467,12.58 707.64064,6.8 718.67258,6.8 C729.704519,6.8 735.220489,12.58 741.471922,19.38 C748.091086,26.18 755.445712,34 769.787234,34 C784.128756,34 791.483382,26.18 798.102546,19.38 C804.353979,12.58 809.869949,6.8 820.901888,6.8 C831.933828,6.8 837.449798,12.58 843.701231,19.38 C850.320395,26.18 857.675021,34 872.016543,34 C886.358065,34 893.712691,26.18 900.331855,19.38 C906.583288,12.58 912.099258,6.8 923.131197,6.8 C925.337585,6.8 926.808511,5.44 926.808511,3.4 C926.808511,1.36 925.337585,0 923.131197,0 Z" id="path-5"></path>
        <filter x="-0.8%" y="-7.4%" width="103.2%" height="126.5%" filterUnits="objectBoundingBox" id="filter-6">
            <feOffset dx="5" dy="4" in="SourceAlpha" result="shadowOffsetOuter1"></feOffset>
            <feColorMatrix values="0 0 0 0 0   0 0 0 0 0   0 0 0 0 0  0 0 0 0.100118886 0" type="matrix" in="shadowOffsetOuter1"></feColorMatrix>
        </filter>
        <path d="M1229.51418,0 C1215.17265,0 1207.81803,7.82 1201.19886,14.62 C1194.94743,21.42 1189.43146,27.2 1178.39952,27.2 C1167.36758,27.2 1161.85161,21.42 1155.60018,14.62 C1149.34875,7.82 1141.99412,0 1127.28487,0 C1112.94335,0 1105.58872,7.82 1098.96956,14.62 C1092.71812,21.42 1087.20215,27.2 1076.17021,27.2 C1065.13827,27.2 1059.6223,21.42 1053.37087,14.62 C1046.75171,7.82 1039.39708,0 1025.05556,0 C1010.71404,0 1003.35941,7.82 996.740246,14.62 C990.488814,21.42 984.972844,27.2 973.940904,27.2 C962.908964,27.2 957.392994,21.42 951.141562,14.62 C944.522398,7.82 937.167771,0 922.826249,0 C920.619861,0 919.148936,1.36 919.148936,3.4 C919.148936,5.44 920.619861,6.8 922.826249,6.8 C933.858189,6.8 939.374159,12.58 945.625592,19.38 C952.244756,26.18 959.599382,34 973.940904,34 C988.282426,34 995.637052,26.18 1002.25622,19.38 C1008.50765,12.58 1014.02362,6.8 1025.05556,6.8 C1036.0875,6.8 1041.60347,12.58 1047.8549,19.38 C1054.47406,26.18 1061.82869,34 1076.17021,34 C1090.51173,34 1097.86636,26.18 1104.48552,19.38 C1110.73696,12.58 1116.25293,6.8 1127.28487,6.8 C1138.31681,6.8 1143.83278,12.58 1150.08421,19.38 C1156.70337,26.18 1164.058,34 1178.39952,34 C1192.74104,34 1200.09567,26.18 1206.71483,19.38 C1212.96627,12.58 1218.48224,6.8 1229.51418,6.8 C1231.72056,6.8 1233.19149,5.44 1233.19149,3.4 C1233.19149,1.36 1231.72056,0 1229.51418,0 Z" id="path-7"></path>
        <filter x="-0.8%" y="-7.4%" width="103.2%" height="126.5%" filterUnits="objectBoundingBox" id="filter-8">
            <feOffset dx="5" dy="4" in="SourceAlpha" result="shadowOffsetOuter1"></feOffset>
            <feColorMatrix values="0 0 0 0 0   0 0 0 0 0   0 0 0 0 0  0 0 0 0.100118886 0" type="matrix" in="shadowOffsetOuter1"></feColorMatrix>
        </filter>
        <path d="M1436.32269,0 C1421.98116,0 1414.62654,7.82 1408.00737,14.62 C1401.75594,21.42 1396.23997,27.2 1385.20803,27.2 C1374.17609,27.2 1368.66012,21.42 1362.40869,14.62 C1356.15726,7.82 1348.80263,0 1334.09338,0 C1319.75186,0 1312.39723,7.82 1305.77807,14.62 C1299.52663,21.42 1294.01066,27.2 1282.97872,27.2 C1271.94678,27.2 1266.43081,21.42 1260.17938,14.62 C1253.56022,7.82 1246.20559,0 1231.86407,0 C1217.52255,0 1210.16792,7.82 1203.54876,14.62 C1197.29732,21.42 1191.78135,27.2 1180.74941,27.2 C1169.71747,27.2 1164.2015,21.42 1157.95007,14.62 C1151.33091,7.82 1143.97628,0 1129.63476,0 C1127.42837,0 1125.95745,1.36 1125.95745,3.4 C1125.95745,5.44 1127.42837,6.8 1129.63476,6.8 C1140.6667,6.8 1146.18267,12.58 1152.4341,19.38 C1159.05327,26.18 1166.40789,34 1180.74941,34 C1195.09094,34 1202.44556,26.18 1209.06473,19.38 C1215.31616,12.58 1220.83213,6.8 1231.86407,6.8 C1242.89601,6.8 1248.41198,12.58 1254.66341,19.38 C1261.28258,26.18 1268.6372,34 1282.97872,34 C1297.32025,34 1304.67487,26.18 1311.29404,19.38 C1317.54547,12.58 1323.06144,6.8 1334.09338,6.8 C1345.12532,6.8 1350.64129,12.58 1356.89272,19.38 C1363.51188,26.18 1370.86651,34 1385.20803,34 C1399.54955,34 1406.90418,26.18 1413.52334,19.38 C1419.77478,12.58 1425.29075,6.8 1436.32269,6.8 C1438.52907,6.8 1440,5.44 1440,3.4 C1440,1.36 1438.52907,0 1436.32269,0 Z" id="path-9"></path>
        <filter x="-0.8%" y="-7.4%" width="103.2%" height="126.5%" filterUnits="objectBoundingBox" id="filter-10">
            <feOffset dx="5" dy="4" in="SourceAlpha" result="shadowOffsetOuter1"></feOffset>
            <feColorMatrix values="0 0 0 0 0   0 0 0 0 0   0 0 0 0 0  0 0 0 0.100118886 0" type="matrix" in="shadowOffsetOuter1"></feColorMatrix>
        </filter>
    </defs>
    <g id="Artboard-2" stroke="none" stroke-width="1" fill="none" fill-rule="evenodd" transform="translate(-294.000000, -1122.000000)">
        <g id="both-squiggles" transform="translate(294.000000, 1122.000000)" fill-rule="nonzero">
            <g id="squiggle">
                <g id="Shape">
                    <use fill="black" fill-opacity="1" filter="url(#filter-2)" xlink:href="#path-1"></use>
                    <use fill="#FFFFFF" fill-rule="evenodd" xlink:href="#path-1"></use>
                </g>
                <g id="Shape-Copy">
                    <use fill="black" fill-opacity="1" filter="url(#filter-4)" xlink:href="#path-3"></use>
                    <use fill="#FFFFFF" fill-rule="evenodd" xlink:href="#path-3"></use>
                </g>
                <g id="Shape-Copy-3">
                    <use fill="black" fill-opacity="1" filter="url(#filter-6)" xlink:href="#path-5"></use>
                    <use fill="#FFFFFF" fill-rule="evenodd" xlink:href="#path-5"></use>
                </g>
                <g id="Shape-Copy-2">
                    <use fill="black" fill-opacity="1" filter="url(#filter-8)" xlink:href="#path-7"></use>
                    <use fill="#FFFFFF" fill-rule="evenodd" xlink:href="#path-7"></use>
                </g>
                <g id="Shape-Copy-4">
                    <use fill="black" fill-opacity="1" filter="url(#filter-10)" xlink:href="#path-9"></use>
                    <use fill="#FFFFFF" fill-rule="evenodd" xlink:href="#path-9"></use>
                </g>
            </g>
            <g id="flipped-squiggles" transform="translate(720.000000, 17.000000) scale(1, -1) translate(-720.000000, -17.000000) " fill="#FFFFFF">
                <path d="M310.36524,0 C296.023718,0 288.669092,7.82 282.049928,14.62 C275.798495,21.42 270.282525,27.2 259.250585,27.2 C248.218646,27.2 242.702676,21.42 236.451243,14.62 C230.199811,7.82 222.845184,0 208.135931,0 C193.794409,0 186.439783,7.82 179.820619,14.62 C173.569186,21.42 168.053216,27.2 157.021277,27.2 C145.989337,27.2 140.473367,21.42 134.221934,14.62 C127.60277,7.82 120.248144,0 105.906622,0 C91.5651004,0 84.2104739,7.82 77.59131,14.62 C71.3398774,21.42 65.8239075,27.2 54.7919677,27.2 C43.7600279,27.2 38.244058,21.42 31.9926254,14.62 C25.3734616,7.82 18.018835,0 3.67731327,0 C1.47092531,0 0,1.36 0,3.4 C0,5.44 1.47092531,6.8 3.67731327,6.8 C14.7092531,6.8 20.225223,12.58 26.4766555,19.38 C33.0958194,26.18 40.450446,34 54.7919677,34 C69.1334895,34 76.488116,26.18 83.1072799,19.38 C89.3587124,12.58 94.8746823,6.8 105.906622,6.8 C116.938562,6.8 122.454532,12.58 128.705964,19.38 C135.325128,26.18 142.679755,34 157.021277,34 C171.362798,34 178.717425,26.18 185.336589,19.38 C191.588021,12.58 197.103991,6.8 208.135931,6.8 C219.167871,6.8 224.683841,12.58 230.935273,19.38 C237.554437,26.18 244.909064,34 259.250585,34 C273.592107,34 280.946734,26.18 287.565898,19.38 C293.81733,12.58 299.3333,6.8 310.36524,6.8 C312.571628,6.8 314.042553,5.44 314.042553,3.4 C314.042553,1.36 312.571628,0 310.36524,0 Z" id="Shape"></path>
                <path d="M616.748219,0 C602.406697,0 595.05207,7.82 588.432906,14.62 C582.181474,21.42 576.665504,27.2 565.633564,27.2 C554.601624,27.2 549.085654,21.42 542.834222,14.62 C536.582789,7.82 529.228163,0 514.51891,0 C500.177388,0 492.822761,7.82 486.203598,14.62 C479.952165,21.42 474.436195,27.2 463.404255,27.2 C452.372316,27.2 446.856346,21.42 440.604913,14.62 C433.985749,7.82 426.631123,0 412.289601,0 C397.948079,0 390.593453,7.82 383.974289,14.62 C377.722856,21.42 372.206886,27.2 361.174946,27.2 C350.143007,27.2 344.627037,21.42 338.375604,14.62 C331.75644,7.82 324.401814,0 310.060292,0 C307.853904,0 306.382979,1.36 306.382979,3.4 C306.382979,5.44 307.853904,6.8 310.060292,6.8 C321.092232,6.8 326.608202,12.58 332.859634,19.38 C339.478798,26.18 346.833425,34 361.174946,34 C375.516468,34 382.871095,26.18 389.490259,19.38 C395.741691,12.58 401.257661,6.8 412.289601,6.8 C423.321541,6.8 428.837511,12.58 435.088943,19.38 C441.708107,26.18 449.062734,34 463.404255,34 C477.745777,34 485.100404,26.18 491.719567,19.38 C497.971,12.58 503.48697,6.8 514.51891,6.8 C525.55085,6.8 531.066819,12.58 537.318252,19.38 C543.937416,26.18 551.292042,34 565.633564,34 C579.975086,34 587.329712,26.18 593.948876,19.38 C600.200309,12.58 605.716279,6.8 616.748219,6.8 C618.954607,6.8 620.425532,5.44 620.425532,3.4 C620.425532,1.36 618.954607,0 616.748219,0 Z" id="Shape-Copy"></path>
                <path d="M923.131197,0 C908.789676,0 901.435049,7.82 894.815885,14.62 C888.564453,21.42 883.048483,27.2 872.016543,27.2 C860.984603,27.2 855.468633,21.42 849.217201,14.62 C842.965768,7.82 835.611142,0 820.901888,0 C806.560367,0 799.20574,7.82 792.586576,14.62 C786.335144,21.42 780.819174,27.2 769.787234,27.2 C758.755294,27.2 753.239324,21.42 746.987892,14.62 C740.368728,7.82 733.014101,0 718.67258,0 C704.331058,0 696.976431,7.82 690.357267,14.62 C684.105835,21.42 678.589865,27.2 667.557925,27.2 C656.525985,27.2 651.010015,21.42 644.758583,14.62 C638.139419,7.82 630.784792,0 616.443271,0 C614.236883,0 612.765957,1.36 612.765957,3.4 C612.765957,5.44 614.236883,6.8 616.443271,6.8 C627.475211,6.8 632.99118,12.58 639.242613,19.38 C645.861777,26.18 653.216403,34 667.557925,34 C681.899447,34 689.254073,26.18 695.873237,19.38 C702.12467,12.58 707.64064,6.8 718.67258,6.8 C729.704519,6.8 735.220489,12.58 741.471922,19.38 C748.091086,26.18 755.445712,34 769.787234,34 C784.128756,34 791.483382,26.18 798.102546,19.38 C804.353979,12.58 809.869949,6.8 820.901888,6.8 C831.933828,6.8 837.449798,12.58 843.701231,19.38 C850.320395,26.18 857.675021,34 872.016543,34 C886.358065,34 893.712691,26.18 900.331855,19.38 C906.583288,12.58 912.099258,6.8 923.131197,6.8 C925.337585,6.8 926.808511,5.44 926.808511,3.4 C926.808511,1.36 925.337585,0 923.131197,0 Z" id="Shape-Copy-3"></path>
                <path d="M1229.51418,0 C1215.17265,0 1207.81803,7.82 1201.19886,14.62 C1194.94743,21.42 1189.43146,27.2 1178.39952,27.2 C1167.36758,27.2 1161.85161,21.42 1155.60018,14.62 C1149.34875,7.82 1141.99412,0 1127.28487,0 C1112.94335,0 1105.58872,7.82 1098.96956,14.62 C1092.71812,21.42 1087.20215,27.2 1076.17021,27.2 C1065.13827,27.2 1059.6223,21.42 1053.37087,14.62 C1046.75171,7.82 1039.39708,0 1025.05556,0 C1010.71404,0 1003.35941,7.82 996.740246,14.62 C990.488814,21.42 984.972844,27.2 973.940904,27.2 C962.908964,27.2 957.392994,21.42 951.141562,14.62 C944.522398,7.82 937.167771,0 922.826249,0 C920.619861,0 919.148936,1.36 919.148936,3.4 C919.148936,5.44 920.619861,6.8 922.826249,6.8 C933.858189,6.8 939.374159,12.58 945.625592,19.38 C952.244756,26.18 959.599382,34 973.940904,34 C988.282426,34 995.637052,26.18 1002.25622,19.38 C1008.50765,12.58 1014.02362,6.8 1025.05556,6.8 C1036.0875,6.8 1041.60347,12.58 1047.8549,19.38 C1054.47406,26.18 1061.82869,34 1076.17021,34 C1090.51173,34 1097.86636,26.18 1104.48552,19.38 C1110.73696,12.58 1116.25293,6.8 1127.28487,6.8 C1138.31681,6.8 1143.83278,12.58 1150.08421,19.38 C1156.70337,26.18 1164.058,34 1178.39952,34 C1192.74104,34 1200.09567,26.18 1206.71483,19.38 C1212.96627,12.58 1218.48224,6.8 1229.51418,6.8 C1231.72056,6.8 1233.19149,5.44 1233.19149,3.4 C1233.19149,1.36 1231.72056,0 1229.51418,0 Z" id="Shape-Copy-2"></path>
                <path d="M1436.32269,0 C1421.98116,0 1414.62654,7.82 1408.00737,14.62 C1401.75594,21.42 1396.23997,27.2 1385.20803,27.2 C1374.17609,27.2 1368.66012,21.42 1362.40869,14.62 C1356.15726,7.82 1348.80263,0 1334.09338,0 C1319.75186,0 1312.39723,7.82 1305.77807,14.62 C1299.52663,21.42 1294.01066,27.2 1282.97872,27.2 C1271.94678,27.2 1266.43081,21.42 1260.17938,14.62 C1253.56022,7.82 1246.20559,0 1231.86407,0 C1217.52255,0 1210.16792,7.82 1203.54876,14.62 C1197.29732,21.42 1191.78135,27.2 1180.74941,27.2 C1169.71747,27.2 1164.2015,21.42 1157.95007,14.62 C1151.33091,7.82 1143.97628,0 1129.63476,0 C1127.42837,0 1125.95745,1.36 1125.95745,3.4 C1125.95745,5.44 1127.42837,6.8 1129.63476,6.8 C1140.6667,6.8 1146.18267,12.58 1152.4341,19.38 C1159.05327,26.18 1166.40789,34 1180.74941,34 C1195.09094,34 1202.44556,26.18 1209.06473,19.38 C1215.31616,12.58 1220.83213,6.8 1231.86407,6.8 C1242.89601,6.8 1248.41198,12.58 1254.66341,19.38 C1261.28258,26.18 1268.6372,34 1282.97872,34 C1297.32025,34 1304.67487,26.18 1311.29404,19.38 C1317.54547,12.58 1323.06144,6.8 1334.09338,6.8 C1345.12532,6.8 1350.64129,12.58 1356.89272,19.38 C1363.51188,26.18 1370.86651,34 1385.20803,34 C1399.54955,34 1406.90418,26.18 1413.52334,19.38 C1419.77478,12.58 1425.29075,6.8 1436.32269,6.8 C1438.52907,6.8 1440,5.44 1440,3.4 C1440,1.36 1438.52907,0 1436.32269,0 Z" id="Shape-Copy-4"></path>
            </g>
        </g>
    </g>
</svg>